<svg width="60" height="60" viewBox="0 0 60 60" fill="none" xmlns="http://www.w3.org/2000/svg">
<g id="Homepage v2">
<g id="Frame 82">
<g id="Frame 81">
<g id="Frame 80">
<g id="Group 11">
<g id="Group 9">
<circle id="Ellipse 5" cx="30" cy="30" r="30" fill="#2EA3F2"/>
<g id="image 6 (traced)" clip-path="url(#clip0_1709_14)">
<g id="Black">
<path id="Vector" d="M19.5746 15.1748C16.3996 18.9748 15.9996 21.5748 18.2746 23.6248C19.4246 24.6498 20.0746 24.8498 21.8496 24.6998C23.4496 24.5748 24.5746 23.8498 25.2496 22.4998C26.2746 20.4998 25.7746 18.7248 23.3246 15.6748C21.5996 13.5248 21.0246 13.4498 19.5746 15.1748Z" fill="white"/>
<path id="Vector_2" d="M34.5995 15.5497C32.6245 17.6997 30.8745 20.4747 30.4995 22.0247C29.9245 24.3747 30.6495 26.6997 32.3995 28.2497C33.6995 29.3747 34.8495 29.7997 36.6745 29.8247C40.7745 29.8747 43.7995 26.2747 42.9995 22.3247C42.4995 19.9247 37.9745 13.9997 36.6245 13.9997C36.2495 13.9997 35.5745 14.5247 34.5995 15.5497Z" fill="white"/>
<path id="Vector_3" d="M19.5491 28.5501C19.1241 28.9751 19.1741 29.8751 19.6241 30.2501C19.9241 30.5001 20.1491 30.5001 20.6241 30.3001C21.6241 29.8251 21.3491 28.2501 20.2491 28.2501C20.0241 28.2501 19.7241 28.3751 19.5491 28.5501Z" fill="white"/>
<path id="Vector_4" d="M25.2242 29.925C21.8492 33.15 19.9492 36.5 19.9492 39.25C19.9492 41.225 20.3742 42.325 21.6742 43.75C23.0242 45.275 24.6992 46 26.8742 46C29.0742 46 30.6992 45.275 32.1492 43.7C33.3992 42.35 33.8492 41.1 33.8492 39.1C33.8242 36.75 32.3242 34.05 28.9992 30.425C26.9992 28.225 26.9992 28.225 25.2242 29.925Z" fill="white"/>
<path id="Vector_5" d="M36.7997 33.3C36.1247 33.975 36.6497 35 37.6747 35C38.4497 35 38.9747 33.95 38.4997 33.375C38.1247 32.925 37.2247 32.875 36.7997 33.3Z" fill="white"/>
</g>
</g>
</g>
</g>
</g>
</g>
</g>
</g>
<defs>
<clipPath id="clip0_1709_14">
<rect width="32" height="32" fill="white" transform="translate(14 14)"/>
</clipPath>
</defs>
</svg>
